<svg width="16" height="16" viewBox="0 0 16 16" fill="none" xmlns="http://www.w3.org/2000/svg">
<path d="M15.1259 4.95547C15.0215 4.85047 14.8974 4.76721 14.7606 4.71048C14.6239 4.65376 14.4773 4.62471 14.3292 4.625H12.0792V4.0625C12.0792 3.01821 11.6644 2.01669 10.926 1.27827C10.1875 0.539843 9.18601 0.125 8.14172 0.125C7.09743 0.125 6.09592 0.539843 5.35749 1.27827C4.61907 2.01669 4.20422 3.01821 4.20422 4.0625V4.625H1.95422C1.65586 4.625 1.36971 4.74353 1.15873 4.9545C0.94775 5.16548 0.829224 5.45163 0.829224 5.75V13.3438C0.829224 14.7148 1.98938 15.875 3.36047 15.875H12.923C13.5862 15.8752 14.2232 15.6159 14.6977 15.1525C14.9365 14.9247 15.1266 14.6509 15.2566 14.3476C15.3867 14.0442 15.4539 13.7177 15.4542 13.3877V5.75C15.4547 5.60244 15.4259 5.45626 15.3695 5.31989C15.3132 5.18352 15.2304 5.05966 15.1259 4.95547ZM10.3917 10.8125H8.70422V12.5C8.70422 12.6492 8.64496 12.7923 8.53947 12.8977C8.43398 13.0032 8.29091 13.0625 8.14172 13.0625C7.99254 13.0625 7.84947 13.0032 7.74398 12.8977C7.63849 12.7923 7.57922 12.6492 7.57922 12.5V10.8125H5.89172C5.74254 10.8125 5.59947 10.7532 5.49398 10.6477C5.38849 10.5423 5.32922 10.3992 5.32922 10.25C5.32922 10.1008 5.38849 9.95774 5.49398 9.85225C5.59947 9.74676 5.74254 9.6875 5.89172 9.6875H7.57922V8C7.57922 7.85082 7.63849 7.70774 7.74398 7.60225C7.84947 7.49676 7.99254 7.4375 8.14172 7.4375C8.29091 7.4375 8.43398 7.49676 8.53947 7.60225C8.64496 7.70774 8.70422 7.85082 8.70422 8V9.6875H10.3917C10.5409 9.6875 10.684 9.74676 10.7895 9.85225C10.895 9.95774 10.9542 10.1008 10.9542 10.25C10.9542 10.3992 10.895 10.5423 10.7895 10.6477C10.684 10.7532 10.5409 10.8125 10.3917 10.8125ZM10.9542 4.625H5.32922V4.0625C5.32922 3.31658 5.62554 2.60121 6.15299 2.07376C6.68043 1.54632 7.3958 1.25 8.14172 1.25C8.88764 1.25 9.60301 1.54632 10.1305 2.07376C10.6579 2.60121 10.9542 3.31658 10.9542 4.0625V4.625Z" fill="white"/>
</svg>
